<svg xmlns="http://www.w3.org/2000/svg" width="747" height="693" fill="none"><g filter="url(#a)"><path fill="#FFFEF8" d="M604.745 481.339c73.394-5.357 130.873-66.83 130.25-141.513-.628-70.582-52.976-128.613-120.757-138.424 25.475-63.508 1.465-137.937-59.308-173.805C494.155-8.271 417.468 6.663 374.329 59.81c-41.32-54.647-117.458-72.381-179.442-38.748-65.609 35.59-91.446 115.741-60.585 182.629C60.908 209.048 3.38 270.494 4.005 345.174c.625 70.584 52.973 128.616 120.757 138.424-25.478 63.508-1.465 137.938 59.308 173.805 60.775 35.868 137.462 20.937 180.598-32.213 41.323 54.647 117.458 72.381 179.442 38.748 65.533-35.57 91.397-115.768 60.588-182.626z"/></g><path fill="#AD1342" d="m497.057 335.348 149.91-28.638-150.102 10.513 142.483-48.064-150.434 31.834 136.962-69.072-141.227 51.546 123.013-85.378-134.491 71.21 110.736-103.304-121.248 88.68 94.176-115.991-109.081 105.733 77.037-129.825-90.718 117.67 56.609-136.47-74.415 131.566 36.818-145.82-53.368 138.088 15.246-146.634-33.707 145.93-6.824-149.257-11.429 147.054-27.489-144.803 9.753 149.448L295.819 79.9l31.132 143.889L258.699 92.94l52.504 140.4-88.375-121.829 71.66 129.305-103.257-106.795 90.52 119.863-119.792-92.038 105.96 104.077-130-73.716 122.141 90.01-142.1-55.542 131.465 70.447-145.805-34.623 143.024 52.56-152.381-13.943 147.397 31.151-150.845 6.875 152.11 11.015-149.912 28.639 150.102-10.513-142.483 48.063 150.435-31.834-136.963 69.072 141.228-51.545-123.015 85.377 134.493-71.21-110.737 103.305 121.269-88.683-94.176 115.992 109.082-105.733-77.037 129.824 90.738-117.672L249.34 589.71l74.415-131.567-36.818 145.82 53.368-138.088-15.267 146.637 33.707-145.931 6.824 149.257 11.429-147.054 27.49 144.804-9.754-149.449 49.448 141.466-31.129-143.87 68.251 130.849-52.504-140.4 88.376 121.829-71.661-129.305 103.257 106.795-90.52-119.864 119.792 92.038-105.959-104.076 129.978 73.718-122.119-90.012 142.079 55.545-131.465-70.448 145.804 34.623-143.025-52.581 152.381 13.943-147.4-31.172 150.846-6.875-152.11-11.015zm-5.54 18.191c-.513 5.2-1.331 10.303-2.516 15.316-.087.389-.217.781-.304 1.17a114 114 0 0 1-4.713 14.86c-.237.593-.494 1.189-.729 1.782a119 119 0 0 1-6.864 14.02c-.197.337-.398.652-.597.989a119 119 0 0 1-8.784 12.947c-.374.481-.769.963-1.142 1.443-3.283 4.085-6.815 7.983-10.606 11.611-.328.307-.636.612-.963.919a116 116 0 0 1-4.51 4.039c-17.548 14.942-39.614 25.21-64.366 28.448-24.754 3.217-48.698-1.053-69.499-11.017a116 116 0 0 1-5.401-2.75 43 43 0 0 1-1.697-.948 124 124 0 0 1-13.194-8.552c-.32-.243-.642-.506-.982-.746a123 123 0 0 1-11.806-10.274l-1.219-1.229a120 120 0 0 1-10.169-11.83c-.268-.353-.558-.725-.825-1.078a115 115 0 0 1-8.363-13.171c-.307-.539-.614-1.077-.902-1.64-2.397-4.548-4.475-9.299-6.274-14.203-.117-.326-.254-.65-.371-.975-1.707-4.83-3.092-9.818-4.194-14.919-.124-.62-.268-1.218-.394-1.837-.476-2.442-.913-4.91-1.227-7.41-.351-2.665-.577-5.343-.736-7.985-.046-.46-.048-.903-.073-1.364a116 116 0 0 1 .219-15.508c.048-.575.118-1.13.187-1.706.513-5.199 1.331-10.303 2.516-15.316.087-.388.217-.781.304-1.17a114 114 0 0 1 4.714-14.859c.236-.594.493-1.189.728-1.783 1.985-4.819 4.256-9.519 6.864-14.02.197-.337.398-.652.597-.989a119 119 0 0 1 8.784-12.947c.374-.48.769-.963 1.142-1.443a124 124 0 0 1 10.606-11.611c.328-.307.636-.612.963-.919a115 115 0 0 1 4.51-4.038c17.546-14.964 39.612-25.232 64.366-28.449s48.719 1.051 69.499 11.017q2.725 1.309 5.401 2.75c.578.301 1.138.624 1.697.948a124 124 0 0 1 13.195 8.553c.319.243.641.505.981.745a123 123 0 0 1 11.806 10.274c.42.401.82.826 1.219 1.229a120 120 0 0 1 10.169 11.83c.268.353.558.725.825 1.078a115 115 0 0 1 8.363 13.171c.307.539.614 1.078.902 1.64 2.397 4.55 4.475 9.299 6.274 14.203.117.326.254.65.371.976 1.728 4.827 3.113 9.815 4.196 14.938.125.621.268 1.219.394 1.839.477 2.442.913 4.909 1.227 7.409.351 2.665.577 5.343.736 7.985.046.46.048.903.074 1.365a113 113 0 0 1-.241 15.509c-.048.575-.118 1.13-.166 1.704"/><path fill="#E58DA2" d="m439.427 348.551 83.518-3.851-82.209-5.999 81.022-14.948-84.065 5.523 79.651-26.766-80.609 16.948 73.361-36.696-78.493 28.124 68.112-47.389-72.674 38.636 60.121-55.56-67.397 48.829 51.908-64.405-58.374 56.739 41.338-69.587-50.623 65.535 31.354-76.207-39.716 70.72 19.712-78.337-29.657 76.502 7.94-81.477-17.664 78.848-3.614-80.667-6.37 81.814-15.789-80.58 5.653 80.443-26.801-76.277 17.514 80.224-38.41-72.969 28.782 75.716-47.655-65.976 39.745 72.063-57.778-59.269 49.331 64.719-64.743-50.104 59.216 58.343-72.711-41.204 65.793 48.458-76.366-30.147 73.468 39.661-81.547-19.447 77.501 28.4-82.33-8.038 81.632 17.832-83.519 3.85 82.211 6-81.024 14.948 84.065-5.523-79.65 26.767 80.61-16.949-73.384 36.697 78.494-28.125-68.113 47.39 72.675-38.637-60.121 55.56 67.397-48.829-51.909 64.405 58.376-56.738-41.339 69.586 50.623-65.535-31.353 76.207 39.716-70.72-19.713 78.337 29.657-76.502-7.939 81.477 17.663-78.848 3.614 80.667 6.37-81.814 15.789 80.58-5.654-80.464 26.802 76.277-17.535-80.225 38.411 72.969-28.783-75.715 47.656 65.977-39.745-72.064 57.777 59.247-49.33-64.697 64.743 50.105-59.217-58.344 72.711 41.205-65.792-48.46 76.365 30.148-73.467-39.662 81.547 19.449-77.502-28.401 82.33 8.038-81.631-17.832zm-4.429 9.429c-.688 2.783-1.522 5.48-2.565 8.112-.087.208-.173.396-.26.605a65 65 0 0 1-3.713 7.697c-.172.313-.365.604-.538.917a68 68 0 0 1-4.816 7.073 9 9 0 0 1-.406.498 69 69 0 0 1-5.773 6.326c-.234.228-.489.455-.723.704a67 67 0 0 1-6.664 5.474c-.191.144-.403.289-.593.412a57 57 0 0 1-2.753 1.831c-10.689 6.743-23.46 10.58-37.12 10.396s-26.322-4.364-36.825-11.392a124 124 0 0 1-2.725-1.905c-.29-.214-.56-.427-.851-.641a67 67 0 0 1-6.493-5.672c-.166-.15-.31-.32-.476-.49a68 68 0 0 1-5.6-6.479l-.557-.762a63 63 0 0 1-4.583-7.222c-.123-.211-.247-.423-.368-.656a63 63 0 0 1-3.506-7.794l-.365-.949a63 63 0 0 1-2.303-8.198l-.118-.568a65 65 0 0 1-1.104-8.413c-.016-.336-.054-.694-.07-1.03a67 67 0 0 1-.092-4.116c.02-1.469.103-2.937.227-4.385.004-.252.049-.503.073-.734.27-2.851.706-5.659 1.33-8.38.068-.314.155-.606.223-.92.687-2.783 1.522-5.48 2.564-8.111.087-.209.174-.397.26-.606a65 65 0 0 1 3.714-7.697c.172-.312.365-.603.537-.916 1.46-2.458 3.045-4.829 4.817-7.074.129-.166.257-.331.406-.497a68 68 0 0 1 5.773-6.326l.722-.705a67 67 0 0 1 6.665-5.473c.191-.145.403-.289.592-.412a79 79 0 0 1 2.754-1.831c10.689-6.742 23.459-10.58 37.12-10.396 13.659.184 26.343 4.365 36.826 11.392.915.621 1.83 1.242 2.702 1.904.291.214.562.428.853.642a67 67 0 0 1 6.492 5.672c.166.149.311.319.476.489a69 69 0 0 1 5.601 6.479q.278.38.555.763a62.4 62.4 0 0 1 4.583 7.221c.124.212.247.424.37.655a63.5 63.5 0 0 1 3.504 7.795l.365.949a63 63 0 0 1 2.303 8.198l.118.569a65 65 0 0 1 1.104 8.412c.017.336.054.694.07 1.03.066 1.365.111 2.731.092 4.116a61 61 0 0 1-.227 4.385c-.004.252-.049.504-.073.734a65 65 0 0 1-1.33 8.38c-.067.314-.155.606-.221.92"/><defs><filter id="a" width="747" height="693" x="0" y="0" color-interpolation-filters="sRGB" filterUnits="userSpaceOnUse"><feFlood flood-opacity="0" result="BackgroundImageFix"/><feColorMatrix in="SourceAlpha" result="hardAlpha" values="0 0 0 0 0 0 0 0 0 0 0 0 0 0 0 0 0 0 127 0"/><feOffset dx="4" dy="4"/><feGaussianBlur stdDeviation="4"/><feComposite in2="hardAlpha" operator="out"/><feColorMatrix values="0 0 0 0 0 0 0 0 0 0 0 0 0 0 0 0 0 0 0.25 0"/><feBlend in2="BackgroundImageFix" result="effect1_dropShadow_7_2"/><feBlend in="SourceGraphic" in2="effect1_dropShadow_7_2" result="shape"/></filter></defs></svg>